<svg width="439" height="392" xmlns="http://www.w3.org/2000/svg">
 <g id="Layer_1">
  <title>Layer 1</title>
  <g>
   <g transform="translate(0 -527.95)">
    <path opacity="0.9" fill="#c4ccdf" d="m140.27,918.24953l-139.27,-0.24881l0,-191.35c0,-105.24 0.109,-191.39 0.24222,-191.45c0.25018,-0.11031 437.13,-6.3538 437.29,-6.2494c0.0497,0.0322 -1.5628,81.806 -3.5833,181.72s-3.696,187.66 -3.7235,194.98l-0.0499,13.322l-75.813,-0.2389c-41.697,-0.13141 -138.49,-0.35088 -215.09,-0.48772l-0.00252,0.00283zm261.59,-17.87c-1.3519,-2.8272 -3.1809,-6.717 -4.0644,-8.6441c-2.4343,-5.3096 -17.373,-16.651 -24.761,-18.798c-1.3322,-0.38726 -4.8201,-2.1511 -7.7509,-3.9196s-10.779,-4.9755 -17.439,-7.1266s-13.637,-4.9379 -15.502,-6.1929c-4.0715,-2.7397 -25.627,-12.819 -32.541,-15.215c-2.7108,-0.93975 -6.286,-2.4105 -7.945,-3.2684s-4.3147,-1.5598 -5.9017,-1.5598c-3.3221,0 -5.9305,-2.1837 -5.9305,-4.9649c0,-1.056 -1.09,-3.5239 -2.4222,-5.4844c-1.8828,-2.7708 -2.4222,-4.7931 -2.4222,-9.0824c0,-4.7788 -0.33514,-5.7816 -2.502,-7.486c-1.3761,-1.0825 -3.338,-2.2334 -4.3598,-2.5578c-1.7288,-0.54869 -1.8578,-1.6618 -1.8578,-16.026c0,-8.8116 0.38466,-15.436 0.89628,-15.436c0.96267,0 4.6701,-5.818 7.7175,-12.111c1.0322,-2.1315 2.8171,-8.3809 3.9664,-13.888c1.664,-7.9727 2.7491,-10.876 5.327,-14.253c1.7805,-2.3326 3.4808,-5.4569 3.7784,-6.9429c2.1175,-10.573 3.6717,-34.331 2.334,-35.678c-0.37745,-0.38026 -1.8256,-0.69138 -3.2182,-0.69138l-2.5319,0l0.6488,-29.187c0.61008,-27.445 0.53421,-29.546 -1.2715,-35.208c-2.0677,-6.4828 -6.5293,-14.81 -7.935,-14.81c-0.47517,0 -5.8207,-4.7054 -11.879,-10.456c-10.52,-9.987 -15.932,-13.765 -19.715,-13.765c-0.9502,0 -3.7182,-0.98096 -6.1512,-2.1799c-4.1167,-2.0287 -5.6331,-2.1736 -21.863,-2.0891c-15.223,0.0793 -18.363,0.37171 -24.706,2.3011c-17.998,5.4747 -32.204,17.421 -40.936,34.425c-2.7244,5.3053 -4.017,20.271 -3.9539,45.779l0.0604,24.464l-2.1727,0c-4.1794,0 -4.6928,1.9846 -4.0089,15.497c0.80741,15.953 1.8796,20.796 6.1501,27.779c2.763,4.5179 3.7349,7.4862 4.8452,14.798c1.7421,11.472 2.669,13.658 9.0299,21.302l5.1453,6.1826l-0.2287,11.235c-0.32642,16.035 -0.82444,17.901 -4.9367,18.501c-4.7058,0.68678 -7.0435,4.7208 -9.5458,16.473c-1.1535,5.4172 -2.4928,10.576 -2.9762,11.464s-4.512,2.8605 -8.9525,4.3839s-12.102,4.4663 -17.027,6.5398s-9.6393,3.77 -10.478,3.77c-1.3721,0 -27.07,12.159 -44.514,21.062c-12.528,6.3937 -24.427,13.755 -29.262,18.102c-4.4718,4.0206 -10.946,14.173 -10.947,17.166c-0.00036,1.0931 6.6468,1.2776 38.997,1.0823c21.448,-0.12943 105.92,0.0938 187.72,0.49601s149.11,0.42333 149.59,0.0469s-0.23249,-2.983 -1.5914,-5.8247l0,-0.00001l-0.00518,-0.00372z"/>
   </g>
  </g>
 </g>

</svg>